<svg width="42" height="42" viewBox="0 0 42 42" fill="none" xmlns="http://www.w3.org/2000/svg">
<g clip-path="url(#clip0_40_234)">
<path d="M40.2445 3.52734H31.2621V0.902344H29.5477V3.52734H12.4441V0.902344H10.7297V3.52734H1.75547C1.24687 3.52734 0.902344 3.87187 0.902344 4.39687V40.2199C0.902344 40.7449 1.24687 41.0977 1.75547 41.0977H40.2363C40.7531 41.0977 41.0895 40.7449 41.0895 40.2199V4.39687C41.0977 3.87187 40.7531 3.52734 40.2445 3.52734ZM39.3832 39.3504H2.6168V5.27461H10.7379V7.89961H12.4523V5.27461H29.5559V7.89961H31.2703V5.27461H39.3914V39.3504H39.3832Z" fill="white"/>
<path d="M6.89072 14.0117C6.37393 14.0117 6.0376 14.3645 6.0376 14.8895V34.9871C6.0376 35.5121 6.38213 35.8648 6.89072 35.8648H35.1095C35.6263 35.8648 35.9626 35.5121 35.9626 34.9871V14.8895C35.9626 14.3645 35.6181 14.0117 35.1095 14.0117H6.89072ZM34.2563 34.1094H7.74385V15.759H34.2563V34.1094Z" fill="white"/>
<path d="M19.2936 19.082H17.5791V20.8293H19.2936V19.082Z" fill="white"/>
<path d="M24.4288 19.082H22.7144V20.8293H24.4288V19.082Z" fill="white"/>
<path d="M29.5558 19.082H27.8413V20.8293H29.5558V19.082Z" fill="white"/>
<path d="M14.1588 24.0586H12.4443V25.8059H14.1588V24.0586Z" fill="white"/>
<path d="M19.2936 24.0586H17.5791V25.8059H19.2936V24.0586Z" fill="white"/>
<path d="M24.4288 24.0586H22.7144V25.8059H24.4288V24.0586Z" fill="white"/>
<path d="M29.5558 24.0586H27.8413V25.8059H29.5558V24.0586Z" fill="white"/>
<path d="M14.1588 29.1289H12.4443V30.8762H14.1588V29.1289Z" fill="white"/>
<path d="M19.2936 29.1289H17.5791V30.8762H19.2936V29.1289Z" fill="white"/>
<path d="M24.4288 29.1289H22.7144V30.8762H24.4288V29.1289Z" fill="white"/>
<path d="M29.5558 29.1289H27.8413V30.8762H29.5558V29.1289Z" fill="white"/>
</g>
<defs>
<clipPath id="clip0_40_234">
<rect width="42" height="42" fill="white"/>
</clipPath>
</defs>
</svg>
