<svg width="43" height="43" viewBox="0 0 43 43" fill="none" xmlns="http://www.w3.org/2000/svg">
<path d="M21.5 14.7813C19.6396 14.7812 17.821 15.3329 16.2742 16.3665C14.7273 17.4001 13.5217 18.8691 12.8098 20.5879C12.0978 22.3067 11.9116 24.1979 12.2745 26.0226C12.6374 27.8472 13.5333 29.5232 14.8488 30.8387C16.1643 32.1542 17.8403 33.0501 19.6649 33.413C21.4896 33.776 23.3809 33.5897 25.0996 32.8777C26.8184 32.1658 28.2874 30.9602 29.321 29.4133C30.3546 27.8665 30.9063 26.0479 30.9063 24.1875C30.9034 21.6937 29.9114 19.3028 28.148 17.5395C26.3847 15.7761 23.9938 14.7841 21.5 14.7813ZM21.5 30.9062C20.1712 30.9062 18.8722 30.5122 17.7673 29.7739C16.6624 29.0357 15.8012 27.9863 15.2927 26.7587C14.7842 25.531 14.6511 24.18 14.9104 22.8767C15.1696 21.5734 15.8095 20.3763 16.7491 19.4366C17.6888 18.497 18.8859 17.8571 20.1892 17.5978C21.4926 17.3386 22.8435 17.4717 24.0712 17.9802C25.2989 18.4887 26.3482 19.3499 27.0864 20.4548C27.8247 21.5597 28.2188 22.8587 28.2188 24.1875C28.2167 25.9688 27.5081 27.6765 26.2486 28.9361C24.989 30.1956 23.2813 30.9042 21.5 30.9062Z" fill="#393838"/>
<path d="M21.5 18.8125C20.0749 18.814 18.7086 19.3808 17.701 20.3885C16.6933 21.3961 16.1265 22.7624 16.125 24.1875C16.125 24.5439 16.2666 24.8857 16.5186 25.1377C16.7706 25.3897 17.1124 25.5312 17.4688 25.5312C17.8251 25.5312 18.1669 25.3897 18.4189 25.1377C18.6709 24.8857 18.8125 24.5439 18.8125 24.1875C18.8133 23.475 19.0967 22.7919 19.6006 22.2881C20.1044 21.7842 20.7875 21.5008 21.5 21.5C21.8564 21.5 22.1982 21.3584 22.4502 21.1064C22.7022 20.8544 22.8438 20.5126 22.8438 20.1562C22.8438 19.7999 22.7022 19.4581 22.4502 19.2061C22.1982 18.9541 21.8564 18.8125 21.5 18.8125Z" fill="#393838"/>
<path d="M34.9375 9.40625H31.5781L27.95 4.56875C27.8249 4.40177 27.6626 4.26625 27.476 4.17294C27.2894 4.07964 27.0836 4.03112 26.875 4.03125H16.125C15.9164 4.03112 15.7106 4.07964 15.524 4.17294C15.3374 4.26625 15.1751 4.40177 15.05 4.56875L11.4219 9.40625H8.0625C6.63742 9.40774 5.27114 9.97452 4.26345 10.9822C3.25577 11.9899 2.68899 13.3562 2.6875 14.7812V33.5938C2.68899 35.0188 3.25577 36.3851 4.26345 37.3928C5.27114 38.4005 6.63742 38.9673 8.0625 38.9688H34.9375C36.3626 38.9673 37.7289 38.4005 38.7365 37.3928C39.7442 36.3851 40.311 35.0188 40.3125 33.5938V14.7812C40.311 13.3562 39.7442 11.9899 38.7365 10.9822C37.7289 9.97452 36.3626 9.40774 34.9375 9.40625ZM37.625 33.5938C37.6242 34.3063 37.3408 34.9894 36.8369 35.4932C36.3331 35.997 35.65 36.2804 34.9375 36.2812H8.0625C7.34998 36.2804 6.66688 35.997 6.16305 35.4932C5.65923 34.9894 5.37582 34.3063 5.375 33.5938V14.7812C5.37582 14.0687 5.65923 13.3856 6.16305 12.8818C6.66688 12.378 7.34998 12.0946 8.0625 12.0938H12.0938C12.3024 12.0939 12.5082 12.0454 12.6948 11.9521C12.8814 11.8588 13.0437 11.7232 13.1687 11.5563L16.7969 6.71875H26.2031L29.8313 11.5563C29.9563 11.7232 30.1186 11.8588 30.3052 11.9521C30.4918 12.0454 30.6976 12.0939 30.9062 12.0938H34.9375C35.65 12.0946 36.3331 12.378 36.8369 12.8818C37.3408 13.3856 37.6242 14.0687 37.625 14.7812V33.5938Z" fill="#393838"/>
<path d="M10.75 14.7812H9.40625C9.04987 14.7812 8.70808 14.9228 8.45608 15.1748C8.20407 15.4268 8.0625 15.7686 8.0625 16.125C8.0625 16.4814 8.20407 16.8232 8.45608 17.0752C8.70808 17.3272 9.04987 17.4688 9.40625 17.4688H10.75C11.1064 17.4688 11.4482 17.3272 11.7002 17.0752C11.9522 16.8232 12.0938 16.4814 12.0938 16.125C12.0938 15.7686 11.9522 15.4268 11.7002 15.1748C11.4482 14.9228 11.1064 14.7812 10.75 14.7812Z" fill="#393838"/>
</svg>
