<svg width="47" height="43" viewBox="0 0 47 43" fill="none" xmlns="http://www.w3.org/2000/svg">
<g clip-path="url(#clip0_52_412)">
<path d="M45.7361 0H22.2361C21.4253 0 20.7673 0.602 20.7673 1.34375V22.8438C20.7673 23.5855 21.4253 24.1875 22.2361 24.1875H29.3052L28.1111 37.625C28.1111 40.5893 30.746 43 33.9861 43C37.2261 43 39.8611 40.5893 39.8567 37.5148L38.667 24.1875H45.7361C46.5468 24.1875 47.2048 23.5855 47.2048 22.8438V1.34375C47.2048 0.602 46.5468 0 45.7361 0ZM23.7048 9.30412C23.9178 9.36594 24.1337 9.40759 24.3481 9.40759C24.6801 9.40759 25.0047 9.33234 25.2955 9.17647C26.0871 8.75587 26.3515 7.96978 26.5865 7.27506C26.6658 7.03991 26.7437 6.80341 26.8465 6.58841C27.2034 5.83859 27.9995 5.32931 28.7882 5.375C29.5798 5.41128 30.3406 5.98237 30.6359 6.76578C30.6946 6.92031 30.7372 7.08156 30.7827 7.24147C30.8885 7.62309 31.0075 8.05309 31.2865 8.43875C31.8094 9.16034 32.7964 9.51644 33.7349 9.331C34.5046 9.17781 35.2066 8.69675 35.7119 7.9765C35.7926 7.86094 35.872 7.73731 35.9527 7.61234C36.1305 7.33419 36.3992 6.91359 36.5696 6.89612C36.5711 6.89209 36.7694 6.86791 37.2629 7.51963C37.6198 7.99263 38.0619 8.57984 38.8183 8.75453C39.9595 9.02328 40.9024 8.12297 41.2549 7.78703C41.5619 7.49275 42.0554 7.052 42.3447 7.07619C42.6253 7.09903 42.9675 7.48066 43.2701 7.81794L43.4287 7.99397C43.6931 8.28288 43.978 8.48712 44.2659 8.64972V16.125H23.7048V9.30412ZM44.2673 21.5H37.0734C36.6636 21.5 36.2715 21.6572 35.9939 21.9327C35.7163 22.2082 35.5767 22.5777 35.6105 22.9526L36.9236 37.625C36.9236 39.1072 35.6061 40.3125 33.9861 40.3125C32.3661 40.3125 31.0486 39.1072 31.0442 37.7352L32.3631 22.9539C32.3969 22.579 32.2574 22.2095 31.9798 21.934C31.7022 21.6586 31.3086 21.5 30.8988 21.5H23.7048V17.4688H44.2673V21.5ZM44.2673 6.8155C43.8282 6.33444 43.2862 5.80366 42.4769 5.73781C41.4591 5.64509 40.6968 6.37878 40.1945 6.85716C39.6173 7.40944 39.3221 7.49006 39.1796 7.45244C38.9578 7.40137 38.689 7.04394 38.407 6.67038C38.1794 6.36938 37.4641 5.44891 36.4139 5.56044C35.5048 5.64913 35.0318 6.39222 34.6852 6.93375C34.6162 7.04125 34.5486 7.14875 34.4781 7.24819C34.1888 7.66072 33.8054 7.94022 33.4265 8.01547C33.0755 8.08803 32.7009 7.95366 32.5115 7.69297C32.3705 7.49947 32.2926 7.21325 32.2089 6.91091C32.1546 6.71338 32.0987 6.5145 32.0268 6.32369C31.5303 5.01353 30.2569 4.09306 28.8601 4.03125C27.4854 3.96809 26.0989 4.80122 25.5026 6.04822C25.3792 6.30756 25.2808 6.59244 25.1853 6.87597C25.0135 7.38391 24.8534 7.85959 24.5582 8.01547C24.3173 8.14044 23.9516 7.99262 23.7269 7.79241C23.7181 7.78434 23.7136 7.77225 23.7048 7.76419V2.6875H44.2673V6.8155Z" fill="#393838"/>
<path d="M33.9861 37.625C34.7973 37.625 35.4548 37.0234 35.4548 36.2812C35.4548 35.5391 34.7973 34.9375 33.9861 34.9375C33.1749 34.9375 32.5173 35.5391 32.5173 36.2812C32.5173 37.0234 33.1749 37.625 33.9861 37.625Z" fill="#393838"/>
</g>
<defs>
<clipPath id="clip0_52_412">
<rect width="47" height="43" fill="white"/>
</clipPath>
</defs>
</svg>
