<svg width="28" height="30" viewBox="0 0 28 30" fill="none" xmlns="http://www.w3.org/2000/svg">
<path fill-rule="evenodd" clip-rule="evenodd" d="M0.145752 1.33203C0.145752 0.676199 0.677419 0.144531 1.33325 0.144531H26.6666C27.3224 0.144531 27.8541 0.676199 27.8541 1.33203V20.332C27.8541 20.9878 27.3224 21.5195 26.6666 21.5195H14.4919L6.92294 29.0883C6.58332 29.428 6.07255 29.5296 5.62882 29.3458C5.18507 29.162 4.89575 28.7289 4.89575 28.2487V21.5195H1.33325C0.677419 21.5195 0.145752 20.9878 0.145752 20.332V1.33203ZM2.52075 2.51953V19.1445H6.08325C6.73908 19.1445 7.27075 19.6762 7.27075 20.332V25.3818L13.1603 19.4924C13.3829 19.2696 13.685 19.1445 13.9999 19.1445H25.4791V2.51953H2.52075ZM6.47908 7.66536C6.47908 7.00953 7.01075 6.47786 7.66658 6.47786H20.3333C20.9891 6.47786 21.5208 7.00953 21.5208 7.66536C21.5208 8.3212 20.9891 8.85287 20.3333 8.85287H7.66658C7.01075 8.85287 6.47908 8.3212 6.47908 7.66536ZM6.47908 13.9987C6.47908 13.3429 7.01075 12.8112 7.66658 12.8112H15.5833C16.2391 12.8112 16.7708 13.3429 16.7708 13.9987C16.7708 14.6545 16.2391 15.1862 15.5833 15.1862H7.66658C7.01075 15.1862 6.47908 14.6545 6.47908 13.9987Z" fill="#393838"/>
</svg>
