<svg width="57" height="57" viewBox="0 0 57 57" fill="none" xmlns="http://www.w3.org/2000/svg">
<g clip-path="url(#clip0_52_398)">
<path d="M56.8927 13.5795C56.8689 13.5001 56.8509 13.4195 56.8191 13.3424C56.786 13.2606 56.7396 13.187 56.6967 13.1093C56.6648 13.0513 56.6387 12.9898 56.6005 12.9336C56.5129 12.8031 56.4143 12.6808 56.3024 12.5694L44.4286 0.69579C43.5014 -0.23193 41.9979 -0.23193 41.0702 0.69579L4.25768 37.5077C3.93703 37.8272 3.71612 38.2308 3.61929 38.6714L1.24429 49.3588C1.06802 50.1508 1.30923 50.9782 1.88268 51.5528L1.98647 51.6566L0.696343 52.9461C-0.230812 53.8733 -0.230812 55.3768 0.696343 56.3039C1.16079 56.7683 1.76788 57.0003 2.37554 57.0003C2.98379 57.0003 3.59029 56.7683 4.05474 56.3039L5.34429 55.0144L5.44634 55.1164C5.89687 55.5669 6.50338 55.8128 7.12554 55.8128C7.29775 55.8128 7.46996 55.7937 7.64101 55.7554L18.3285 53.3804C18.7692 53.283 19.1739 53.0609 19.4922 52.7415L52.2505 19.9837V25.1424L43.4463 33.9464C42.5192 34.8736 42.5192 36.3771 43.4463 37.3042C43.9108 37.7686 44.5179 38.0006 45.1255 38.0006C45.7338 38.0006 46.3403 37.7686 46.8047 37.3042L56.3047 27.8043C56.7501 27.359 57.0005 26.7549 57.0005 26.1257V14.2509C57.0005 14.095 56.9843 13.9396 56.9542 13.7853C56.9402 13.714 56.913 13.6485 56.8927 13.5795ZM21.3755 44.1421L12.8589 35.6256L24.938 23.5461L33.4552 32.0632L21.3755 44.1421ZM7.88338 50.8367L6.16476 49.1187L8.10778 40.379L9.50054 38.9834L18.0177 47.5004L16.6232 48.8943L7.88338 50.8367ZM36.813 28.7048L28.2964 20.1883L42.7505 5.73389L51.2677 14.2509L36.813 28.7048Z" fill="#E0E0E0"/>
</g>
<defs>
<clipPath id="clip0_52_398">
<rect width="57" height="57" fill="white"/>
</clipPath>
</defs>
</svg>
